<svg xmlns="http://www.w3.org/2000/svg" width="50" height="50" viewBox="0 0 50 50">
    <defs>
        <style>
            .cls-3{fill:none;stroke-width:2px;stroke:#666}
        </style>
    </defs>
    <g id="btn_project" transform="translate(-686 -766)">
        <circle id="타원_399" cx="25" cy="25" r="25" fill="#f1f3f6" transform="translate(686 766)"/>
        <g id="그룹_1909" transform="translate(496.826 33.183)">
            <path id="패스_650" fill="none" stroke="#666" stroke-linejoin="round" stroke-width="2px" d="M204.173 766.308v-16.16c0-.566.206-.815.819-.815h5.039a1.15 1.15 0 0 1 .85.366l1.369 1.5a1.148 1.148 0 0 0 .849.365h9.965a1.07 1.07 0 0 1 1.11 1.025v13.719a1.069 1.069 0 0 1-1.11 1.025h-17.78a1.07 1.07 0 0 1-1.111-1.025z" transform="translate(0 -0.515)"/>
            <path id="선_128" d="M0 0L8 0" class="cls-3" transform="translate(212.173 756.818)" stroke="#666"/>
            <path id="선_129" d="M0 0L2 0" class="cls-3" transform="translate(208.173 756.818)" stroke="#666"/>
            <path id="선_128-2" d="M0 0L8 0" class="cls-3" transform="translate(212.173 760.818)" stroke="#666"/>
            <path id="선_129-2" d="M0 0L2 0" class="cls-3" transform="translate(208.173 760.818)" stroke="#666"/>
        </g>
    </g>
</svg>
