<svg xmlns="http://www.w3.org/2000/svg" width="50" height="50" viewBox="0 0 50 50">
    <defs>
        <style>
            .cls-2,.cls-5{fill:none}.cls-2{stroke:#666;stroke-width:2px}.cls-4{stroke:none}
        </style>
    </defs>
    <g id="icon_chat" transform="translate(-768 -766)">
        <circle id="타원_399" cx="25" cy="25" r="25" fill="#f1f3f6" transform="translate(768 766)"/>
        <g id="그룹_1874" transform="translate(639 519)" >
            <g id="타원_29" class="cls-2" transform="translate(147 270)" stroke="#666">
                <circle cx="1.5" cy="1.5" r="1.5" class="cls-4"/>
                <circle cx="1.5" cy="1.5" r=".5" class="cls-5"/>
            </g>
            <g id="타원_30" class="cls-2" transform="translate(153 270)" stroke="#666">
                <circle cx="1.5" cy="1.5" r="1.5" class="cls-4"/>
                <circle cx="1.5" cy="1.5" r=".5" class="cls-5"/>
            </g>
            <g id="타원_31" class="cls-2" transform="translate(158.999 270)" stroke="#666">
                <circle cx="1.5" cy="1.5" r="1.5" class="cls-4"/>
                <circle cx="1.5" cy="1.5" r=".5" class="cls-5"/>
            </g>
            <path id="패스_753" fill="none" stroke="#666" stroke-miterlimit="10" stroke-width="2px" d="M417.915 206.691a11.872 11.872 0 0 0-11.568 10.909 11.3 11.3 0 0 0 2.736 8.063.64.64 0 0 1 .049.752c-.916 1.584-1.981 3.238-2.292 3.731-.135.213-.116.581.136.53a38.289 38.289 0 0 0 5.311-2.007.783.783 0 0 1 .65-.035 12.364 12.364 0 0 0 6.5 1.183 11.59 11.59 0 1 0-1.528-23.129z" transform="translate(-264.327 53.315)"/>
        </g>
    </g>
</svg>
