<svg xmlns="http://www.w3.org/2000/svg" width="50" height="50" viewBox="0 0 50 50">
    <g transform="translate(-14 -313.446)">
        <circle cx="25" cy="25" r="25" fill="#f1f3f6" transform="translate(14 313.446)"/>
        <g fill="none" stroke="#666" stroke-width="2px">
            <path stroke-linecap="round" stroke-linejoin="round" d="M553.556 53.556V38.829a.271.271 0 0 1 .268-.273h14.464a.27.27 0 0 1 .268.273v14.727" transform="translate(26 326.447) translate(-547.557 -38.556)"/>
            <path stroke-linecap="round" stroke-miterlimit="10" d="M547.177 39.957l-20.919 20.4a.269.269 0 0 0 0 .383l6.195 6.136a.278.278 0 0 0 .388 0l14.336-13.921" transform="translate(26 326.447) translate(-526.177 -38.958)"/>
            <path stroke-miterlimit="10" d="M554.557 39.555l17.92 18.273a.282.282 0 0 1 0 .394l-7.09 7.216a.27.27 0 0 1-.387 0l-3.712-3.778" transform="translate(26 326.447) translate(-548.557 -39.556)"/>
        </g>
    </g>
</svg>
