<svg xmlns="http://www.w3.org/2000/svg" width="50" height="50" viewBox="0 0 50 50">
    <g transform="translate(-686 -857)">
        <circle cx="25" cy="25" r="25" fill="#f1f3f6" transform="translate(686 857)"/>
        <path fill="none" stroke="#666" stroke-linejoin="round" stroke-width="2px" d="M576.548 291.872a1.167 1.167 0 0 0-.324.593c-.288 1.37-.712 6.446 6.352 13.473s12.057 6.63 13.414 6.35a1.175 1.175 0 0 0 .594-.319l3.166-3.15a1.168 1.168 0 0 0 0-1.658l-4.262-4.24a1.184 1.184 0 0 0-1.667 0l-2.438 2.426a.588.588 0 0 1-.682.109 17.527 17.527 0 0 1-7.75-7.7.584.584 0 0 1 .124-.654l2.515-2.5a1.168 1.168 0 0 0 0-1.658l-4.214-4.191a1.182 1.182 0 0 0-1.663 0z" transform="translate(122.904 581.591)"/>
    </g>
</svg>
