<svg xmlns="http://www.w3.org/2000/svg" width="50" height="50" viewBox="0 0 50 50">
    <defs>
        <style>
            .cls-2,.cls-3,.cls-5{fill:none}.cls-2,.cls-3{stroke-width:2px}.cls-2{stroke:#666;stroke-linecap:round;stroke-linejoin:round}.cls-3{stroke:#666}.cls-4{stroke:none}
        </style>
    </defs>
    <g id="btn_UCbot" transform="translate(-850 -766)">
        <circle id="타원_397" cx="25" cy="25" r="25" fill="#f1f3f6" transform="translate(850 766)"/>
        <g id="그룹_1912" transform="translate(809.82 734.855)">
            <g id="그룹_770" transform="translate(56.928 51.901)">
                <circle id="타원_258" cx="9" cy="9" r="9" class="cls-2" transform="translate(-0.748 -0.756)" stroke="#666"/>
                <path id="패스_618" d="M58.753 55.089c0 1.1 1.354 2 3 2s3-.9 3-2" class="cls-2" transform="translate(-53.503 -43.845)" stroke="#666"/>
                <g id="타원_259" class="cls-3" transform="translate(2.251 5.244)" stroke="#666">
                    <circle cx="1.5" cy="1.5" r="1.5" class="cls-4"/>
                    <circle cx="1.5" cy="1.5" r=".5" class="cls-5"/>
                </g>
                <g id="타원_260" class="cls-3" transform="translate(11.252 5.244)" stroke="#666">
                    <circle cx="1.5" cy="1.5" r="1.5" class="cls-4"/>
                    <circle cx="1.5" cy="1.5" r=".5" class="cls-5"/>
                </g>
            </g>
            <path id="선_80" d="M0 3L0 0" class="cls-2" transform="translate(65.179 47.145)" stroke="#666"/>
            <circle id="타원_261" cx="2" cy="2" r="2" class="cls-2" transform="translate(63.18 43.145)" stroke="#666"/>
            <path id="패스_619" d="M66.179 51.129h1.1a2.9 2.9 0 0 1 2.9 2.9v2.2a2.9 2.9 0 0 1-2.9 2.9h-1.1" class="cls-2" transform="translate(8 4.016)" stroke="#666"/>
            <path id="패스_620" d="M57.179 51.129h-1.1a2.9 2.9 0 0 0-2.9 2.9v2.2a2.9 2.9 0 0 0 2.9 2.9h1.1" class="cls-2" transform="translate(-1 4.016)" stroke="#666"/>
        </g>
    </g>
</svg>
