<svg xmlns="http://www.w3.org/2000/svg" width="50" height="50" viewBox="0 0 50 50">
    <defs>
        <style>
            .cls-3{fill:none;stroke:#666;stroke-linejoin:round;stroke-width:2px;stroke-linecap:round}
        </style>
    </defs>
    <g id="btn_drive" transform="translate(-932 -765.501)">
        <circle id="타원_401" cx="25" cy="25" r="25" fill="#f1f3f6" transform="translate(932 765.501)"/>
        <g id="그룹_1906" transform="translate(350.936 312.112)">
            <path id="패스_310" fill="none" stroke="#666" stroke-linejoin="round" stroke-miterlimit="10" stroke-width="2px" d="M614.147 472.979a6.617 6.617 0 0 0-12.932-1.951 4.282 4.282 0 0 0-1.488-.271 4.376 4.376 0 0 0-4.346 4.406 4.491 4.491 0 0 0 .108.967 5.3 5.3 0 0 0 1.8 10.259h16.141a6.73 6.73 0 0 0 .717-13.41z" transform="translate(0 0)"/>
            <g id="그룹_35" transform="translate(602.852 476.631)">
                <path id="패스_290" d="M621.239 489.306l-5-4-5 4" class="cls-3" transform="translate(-612.027 -485.547)" stroke="#666"/>
                <path id="패스_291" d="M619.905 485.306v14" class="cls-3" transform="translate(-615.692 -485.547)" stroke="#666"/>
            </g>
        </g>
    </g>
</svg>
