<svg xmlns="http://www.w3.org/2000/svg" width="50" height="50" viewBox="0 0 50 50">
    <defs>
        <style>
            .cls-2{fill:#666}
        </style>
    </defs>
    <g id="btn_rss" transform="translate(-932 -766)">
        <circle id="타원_398" cx="25" cy="25" r="25" fill="#f1f3f6" transform="translate(932 766)"/>
        <g id="그룹_1911" transform="translate(729.826 131.307)">
            <circle id="타원_61" cx="3" cy="3" r="3" class="cls-2" transform="translate(217.174 664.693)" fill="#666"/>
            <g id="그룹_106" transform="translate(218.733 654.074)">
                <path id="패스_345" d="M231.478 672.256a2.017 2.017 0 0 1-2.018-2.018 9.959 9.959 0 0 0-9.947-9.947 2.018 2.018 0 0 1 0-4.035 14 14 0 0 1 13.987 13.982 2.017 2.017 0 0 1-2.022 2.018z" class="cls-2" transform="translate(-219.055 -655.637)" fill="#666"/>
            </g>
            <g id="그룹_107" transform="translate(217.173 646.693)">
                <path id="패스_346" d="M239.158 670.693a2.015 2.015 0 0 1-2.015-2.015 17.976 17.976 0 0 0-17.955-17.955 2.015 2.015 0 1 1 0-4.03 22.01 22.01 0 0 1 21.985 21.985 2.015 2.015 0 0 1-2.015 2.015z" class="cls-2" transform="translate(-217.173 -646.693)" fill="#666"/>
            </g>
        </g>
    </g>
</svg>
