<svg xmlns="http://www.w3.org/2000/svg" width="50" height="50" viewBox="0 0 50 50">
    <g transform="translate(-768 -857)">
        <circle cx="25" cy="25" r="25" fill="#f1f3f6" transform="translate(768 857)"/>
        <g>
            <path fill="none" stroke="#666" stroke-miterlimit="10" stroke-width="2px" d="M53.953 468.371h-8.839l-2.67 5.059a.932.932 0 0 1-1.7-.38l-.061-4.679h-5.024a2.9 2.9 0 0 1-2.853-2.944v-12.633a2.9 2.9 0 0 1 2.853-2.942h18.294a2.9 2.9 0 0 1 2.853 2.942v12.634a2.9 2.9 0 0 1-2.853 2.943z" transform="translate(388.5 722) translate(359.694 -299.852)"/>
            <text fill="#666" font-family="Roboto-Bold, Roboto" font-size="9px" font-weight="700" transform="translate(388.5 722) translate(404.5 162)">
                <tspan x="-9.475" y="0">SMS</tspan>
            </text>
        </g>
    </g>
</svg>
