<svg xmlns="http://www.w3.org/2000/svg" width="50" height="50" viewBox="0 0 50 50">
    <defs>
        <style>
            .cls-2,.cls-3{fill:none;stroke:#666;stroke-miterlimit:10;stroke-width:2px}.cls-3{fill:#666}
        </style>
    </defs>
    <g id="btn_notice" transform="translate(-686 -766)">
        <circle id="타원_400" cx="25" cy="25" r="25" fill="#f1f3f6" transform="translate(686 766)"/>
        <g id="그룹_1914" transform="translate(954.139 -28.167)">
            <rect id="사각형_709" width="4" height="20" class="cls-2" rx="2" transform="translate(-234.139 807.167)" stroke="#666"/>
            <path id="사각형_710" d="M3 0h3v10H3a3 3 0 0 1-3-3V3a3 3 0 0 1 3-3z" class="cls-2" transform="translate(-255.139 811.167)" stroke="#666"/>
            <path id="패스_667" d="M-233.306 823.917c-6.138-1.977-15-2-15-2" class="cls-3" transform="translate(-0.832 -0.75)" stroke="#666"/>
            <path id="패스_668" d="M-233.306 809.319c-6.138 1.977-15 2-15 2" class="cls-3" transform="translate(-0.832 -0.152)" stroke="#666"/>
            <path id="패스_669" d="M-243.765 822.176l1.6 8.268a1.193 1.193 0 0 1-.88 1.407 3.121 3.121 0 0 1-3.672-2.562l-1.426-7.371" class="cls-2" transform="translate(-0.995 -0.751)" stroke="#666"/>
            <path id="패스_670" d="M-239.073 822.764a4 4 0 0 1-4 4" class="cls-2" transform="translate(-1.065 -0.597)" stroke="#666"/>
        </g>
    </g>
</svg>
