<svg xmlns="http://www.w3.org/2000/svg" width="36" height="36" viewBox="0 0 36 36">
    <g id="icon_routine" transform="translate(-1030 -10)">
        <path id="container" fill="none" d="M0 0H36V36H0z" transform="translate(1030 10)"/>
        <g id="symbol" transform="translate(1004.943 -258.806)" fill="#555">
            <path id="패스_1157" d="M55.043 280.743a.938.938 0 0 0-.051-.257.83.83 0 0 0-.034-.1.976.976 0 0 0-.195-.292l-8-8a.985.985 0 0 0-.294-.2c-.03-.013-.06-.022-.091-.032a.938.938 0 0 0-.263-.052c-.02 0-.039-.012-.059-.012h-14a1 1 0 0 0-1 1v28a1 1 0 0 0 1 1h22a1 1 0 0 0 1-1v-20a.638.638 0 0 0-.013-.055zm-3.4-.937h-4.587v-4.586zm-18.586 20v-26h12v7a1 1 0 0 0 1 1h7v18z"/>
            <path id="패스_1158" d="M42.692 291.806a1 1 0 0 1-.762-.353l-3.637-4.286a1 1 0 1 1 1.525-1.294l2.814 3.315 3.615-4.971a1 1 0 1 1 1.617 1.177l-4.363 6a1 1 0 0 1-.771.411z"/>
        </g>
    </g>
</svg>
