<svg xmlns="http://www.w3.org/2000/svg" width="36" height="36" viewBox="0 0 36 36">
    <g id="icon_info" transform="translate(-1105 -10)">
        <path id="container" fill="none" d="M0 0H36V36H0z" transform="translate(1105 10)"/>
        <g id="symbol" transform="translate(997.003 -246)">
            <path id="패스_1159" fill="#666" d="M129.33 291h-6.659c-.034 0-.068 0-.1-.005a2.879 2.879 0 0 1-2.563-3.03V286a1 1 0 0 1 1-1h9.988a1 1 0 0 1 1 1v2a2.823 2.823 0 0 1-2.561 2.995c-.035.005-.071.005-.105.005zm-6.6-2h6.537a.856.856 0 0 0 .728-.921V287h-7.99v1.079a.866.866 0 0 0 .727.921zm-1.726-1z"/>
            <path id="패스_1160" fill="#666" d="M135.854 262.145a11.993 11.993 0 0 0-9.843-5.145h-.023a11.99 11.99 0 0 0-7.273 21.521v1.913a2.582 2.582 0 0 0 2.572 2.566h9.43a2.584 2.584 0 0 0 2.567-2.571v-1.908a12.007 12.007 0 0 0 2.57-16.376zM124.847 281l-1.481-8.887 2.079 1.386a1 1 0 0 0 1.11 0l2.079-1.386-1.481 8.887zm6.866-3.808a1 1 0 0 0-.429.821v2.413a.577.577 0 0 1-.571.574h-1.533l1.806-10.835a1 1 0 0 0-1.541-1l-3.445 2.3-3.445-2.3a1 1 0 0 0-1.541 1L122.82 281h-1.531a.576.576 0 0 1-.574-.57v-2.417a1 1 0 0 0-.429-.821 9.99 9.99 0 0 1 5.7-18.192H126a.023.023 0 0 1 .012 0 9.99 9.99 0 0 1 5.7 18.192z"/>
        </g>
    </g>
</svg>
