<svg xmlns="http://www.w3.org/2000/svg" width="36" height="36" viewBox="0 0 36 36">
    <g>
        <path fill="none" d="M0 0H36V36H0z" transform="translate(-723 -10) translate(723 10)"/>
        <path fill="#666" d="M81.707 186.293l-5-5-11-11a1 1 0 0 0-1.414 0l-16 16a1 1 0 0 0 1.414 1.414L53 184.414v13.775a1.069 1.069 0 0 0 .008.127 1.916 1.916 0 0 0 2.051 1.679h3.884a1.917 1.917 0 0 0 2.05-1.68A1 1 0 0 0 61 198.2l.092-6.219h8L69 198.175a.945.945 0 0 0 .009.141 1.918 1.918 0 0 0 2.05 1.679h3.883c.049 0 .1.005.144.005a1.914 1.914 0 0 0 1.906-1.685.879.879 0 0 0 .008-.126v-13.775l3.293 3.293a1 1 0 0 0 1.414-1.414zM75 197.995h-.015l-3.985.068.094-6.257a.958.958 0 0 0-.009-.142 1.915 1.915 0 0 0-2.049-1.679h-7.882a1.909 1.909 0 0 0-2.05 1.678 1.075 1.075 0 0 0-.009.113L59 197.995h-.018l-3.982.068v-15.649l10-10 10 10z" transform="translate(-723 -10) translate(676 -157)"/>
    </g>
</svg>
