<svg xmlns="http://www.w3.org/2000/svg" width="36" height="36" viewBox="0 0 36 36">
    <g>
        <path fill="none" d="M0 0H36V36H0z" transform="translate(-879 -10) translate(879 10)"/>
        <path fill="#666" d="M224.986 177.291c0-.1.014-.193.014-.291a11.91 11.91 0 0 0-5.111-9.8 7 7 0 1 0-13.778 0A11.907 11.907 0 0 0 201 177c0 .1.012.193.014.291a7 7 0 1 0 7.6 10.866 11.805 11.805 0 0 0 8.762 0 6.994 6.994 0 1 0 7.6-10.866zM213 161a5 5 0 1 1-5 5 5.006 5.006 0 0 1 5-5zm-10 28a5 5 0 1 1 5-5 5.006 5.006 0 0 1-5 5zm6.572-2.612A6.981 6.981 0 0 0 203 177a9.933 9.933 0 0 1 3.772-7.82 6.987 6.987 0 0 0 12.456 0A9.931 9.931 0 0 1 223 177a7.008 7.008 0 0 0-7 7 6.93 6.93 0 0 0 .429 2.388 10.084 10.084 0 0 1-6.857 0zM223 189a5 5 0 1 1 5-5 5.006 5.006 0 0 1-5 5z" transform="translate(-879 -10) translate(684 -147)"/>
    </g>
</svg>
