<svg xmlns="http://www.w3.org/2000/svg" width="36" height="36" viewBox="0 0 36 36">
    <g>
        <path fill="none" d="M0 0H36V36H0z" transform="translate(-800 -10) translate(800 10)"/>
        <path fill="#666" d="M137.313 197.889c-.291-.439-1.024-1.547-1.741-2.725a10.424 10.424 0 0 0 2.407-7.3 11.132 11.132 0 0 0-8.224-9.688 12.6 12.6 0 0 0-13.081-10.158l-.165.011h-.038a12.836 12.836 0 0 0-12.45 11.837 12.22 12.22 0 0 0 2.8 8.561c-.759 1.3-1.59 2.607-2 3.251l-.155.243a1.464 1.464 0 0 0-.017 1.571 1.124 1.124 0 0 0 .959.489 1.54 1.54 0 0 0 .323-.035 39.434 39.434 0 0 0 5.382-2.029 13.362 13.362 0 0 0 4.8 1.23v.009a11.468 11.468 0 0 0 9.321 6.107c.349.03.708.045 1.062.045a12.1 12.1 0 0 0 4.974-1.058l1.124.447a23.6 23.6 0 0 0 3.579 1.262 1.468 1.468 0 0 0 .256.032h.045a1.138 1.138 0 0 0 .964-.535.951.951 0 0 0 .081-.159 1.413 1.413 0 0 0-.132-1.3zm-26.779-7.805c-1.034.481-2.1.916-3.155 1.3.4-.641.851-1.384 1.269-2.108a1.64 1.64 0 0 0-.137-1.94 10.229 10.229 0 0 1-2.5-7.319 10.837 10.837 0 0 1 10.583-9.98.97.97 0 0 0 .121-.01l.077-.005a10.578 10.578 0 1 1 1.213 21.122 11.4 11.4 0 0 1-6.04-1.117 1.762 1.762 0 0 0-1.431.057zm22.841 6.78l-1.193-.477a1.964 1.964 0 0 0-.737-.158 1.465 1.465 0 0 0-.655.142 10.066 10.066 0 0 1-4.246.945c-.319 0-.627-.011-.945-.038a9.472 9.472 0 0 1-7.177-4.171 12.533 12.533 0 0 0 11.561-12.768 9.115 9.115 0 0 1 6 7.679 8.4 8.4 0 0 1-2.143 6.087 1.507 1.507 0 0 0-.153 1.81c.3.5.606.993.893 1.445q-.603-.228-1.205-.496z" transform="translate(-800 -10) translate(697.001 -156)"/>
    </g>
</svg>
