<svg xmlns="http://www.w3.org/2000/svg" width="36" height="36" viewBox="0 0 36 36">
    <g>
        <path fill="none" d="M0 0H36V36H0z" transform="translate(-879 -10) translate(879 10)"/>
        <path fill="#666" d="M30.385 244.528H17.364a1.04 1.04 0 0 1-.195-.019h-5.863a1 1 0 0 1-1-1v-8.394a1.011 1.011 0 0 1 .012-.155 2.252 2.252 0 0 1 .4-.969 2.31 2.31 0 0 1 3.116-.567c1.383.749 2.1 1.079 3.06.555a2.819 2.819 0 0 0 1.146-3.826 2.118 2.118 0 0 0-1.332-1.062 3.87 3.87 0 0 0-2.814.689 2.427 2.427 0 0 1-.728.3 2.376 2.376 0 0 1-2.833-1.748.945.945 0 0 1-.027-.23v-8.543a1 1 0 0 1 1-1h8.34a.36.36 0 0 0 .1-.161.356.356 0 0 0-.036-.277c-.7-1.226-1.754-3.071-.63-5.134.006-.01.049-.085.054-.1a4.856 4.856 0 0 1 6.537-1.743 4.149 4.149 0 0 1 2.039 2.6 5.746 5.746 0 0 1-.935 4.348.387.387 0 0 0-.039.321.4.4 0 0 0 .083.133h8.454a1 1 0 0 1 1 1v8.5a1.111 1.111 0 0 1 .037.229v6.607a1 1 0 0 1-.04.278v8.345a1 1 0 0 1-1 1h-4.687a.924.924 0 0 1-.198.023zm-12.825-2h12.627a.918.918 0 0 1 .2-.021h3.881v-7.534a.968.968 0 0 1 .04-.278v-6.237a.988.988 0 0 1-.037-.27v-7.638h-7.745a1 1 0 0 1-.417-.091 2.383 2.383 0 0 1-1.257-1.363 2.341 2.341 0 0 1 .092-1.824 2.394 2.394 0 0 1 .13-.236 3.855 3.855 0 0 0 .69-2.81 2.137 2.137 0 0 0-1.09-1.344 2.846 2.846 0 0 0-3.82 1.022c-.527.965-.243 1.768.585 3.218a2.338 2.338 0 0 1 .23 1.809 2.373 2.373 0 0 1-1.15 1.452c-.048.027-.1.055-.161.081a1 1 0 0 1-.42.093h-7.632v7.386a.372.372 0 0 0 .419.183.381.381 0 0 0 .116-.046 5.749 5.749 0 0 1 4.345-.931 4.151 4.151 0 0 1 2.6 2.022 4.81 4.81 0 0 1-1.927 6.561c-1.98 1.074-3.587.2-5.006-.566-.032-.018-.073-.042-.1-.063a.3.3 0 0 0-.409.063.216.216 0 0 0-.031.058v7.285h5.058a.979.979 0 0 1 .189.019z" transform="translate(-879 -10) translate(873.693 -199.529)"/>
    </g>
</svg>
